<?xml version="1.0" standalone="no"?><!DOCTYPE svg PUBLIC "-//W3C//DTD SVG 1.1//EN" "http://www.w3.org/Graphics/SVG/1.1/DTD/svg11.dtd"><svg t="1488939643492" class="icon" style="" viewBox="0 0 1024 1024" version="1.1" xmlns="http://www.w3.org/2000/svg" p-id="8305" xmlns:xlink="http://www.w3.org/1999/xlink" width="25" height="25"><defs><style type="text/css"></style></defs><path d="M860.861456 896.945279 163.142637 896.945279c-19.936051 0-36.090986-16.154935-36.090986-36.090986L127.051651 163.140591c0-19.931958 16.154935-36.090986 36.090986-36.090986l697.718819 0c19.931958 0 36.086893 16.159028 36.086893 36.090986l0 697.713702C896.948349 880.790344 880.793414 896.945279 860.861456 896.945279zM824.774563 199.231577 199.233624 199.231577 199.233624 824.7674l625.540939 0L824.774563 199.231577zM343.589382 379.677299c0-19.931958 16.154935-36.090986 36.086893-36.090986 9.967002 0 18.987447 4.037966 25.51921 10.568706L512.005117 460.965673l106.805538-106.810654c6.531763-6.531763 15.552208-10.568706 25.518187-10.568706 19.931958 0 36.090986 16.159028 36.090986 36.090986 0 9.961886-4.042059 18.986423-10.5728 25.518187L563.040467 511.99693l106.805538 106.810654c6.531763 6.531763 10.5728 15.556301 10.5728 25.518187 0 19.931958-16.159028 36.090986-36.090986 36.090986-9.965979 0-18.986423-4.042059-25.518187-10.5728L512.005117 563.037397 405.194462 669.842934c-6.531763 6.531763-15.552208 10.5728-25.51921 10.5728-19.931958 0-36.086893-16.159028-36.086893-36.090986 0-9.961886 4.037966-18.986423 10.568706-25.518187l106.806561-106.810654L354.158089 405.195485C347.626325 398.664745 343.589382 389.639185 343.589382 379.677299z" p-id="8306" fill="#ffffff"></path></svg>