<?xml version="1.0" encoding="utf-8"?>
<!-- Generated by IcoMoon.io -->
<!DOCTYPE svg PUBLIC "-//W3C//DTD SVG 1.1//EN" "http://www.w3.org/Graphics/SVG/1.1/DTD/svg11.dtd">
<svg version="1.1" xmlns="http://www.w3.org/2000/svg" xmlns:xlink="http://www.w3.org/1999/xlink" width="24" height="24" viewBox="0 0 25 25">
<g id="icomoon-ignore">
</g>
<path fill="#000" d="M128 32h512q39.75 0 67.875 28.125t28.125 67.875v512q0 39.75-28.125 67.875t-67.875 28.125h-512q-39.75 0-67.875-28.125t-28.125-67.875v-512q0-39.75 28.125-67.875t67.875-28.125zM640 96h-512q-13.25 0-22.625 9.375t-9.375 22.625v512q0 13.25 9.375 22.625t22.625 9.375h512q13.25 0 22.625-9.375t9.375-22.625v-512q0-13.25-9.375-22.625t-22.625-9.375zM474.5 261.25q13.25 0 22.75 9.5t9.5 22.75-9.5 22.75l-68 67.75 68 67.75q9.5 9.5 9.5 22.75t-9.5 22.625-22.75 9.375-22.5-9.25l-68-68-68 68q-9 9.25-22.5 9.25-13.75 0-22.875-9.125t-9.125-22.875q0-13.5 9.25-22.75l68-67.75-68-67.75q-9.25-9.25-9.25-22.75 0-13.25 9.375-22.75t22.625-9.5q13.5 0 22.5 9.5l68 68 68-68q9.5-9.5 22.5-9.5z"></path>
</svg>
